<?xml version="1.0" encoding="UTF-8"?><svg id="Layer_1" xmlns="http://www.w3.org/2000/svg" xmlns:xlink="http://www.w3.org/1999/xlink" viewBox="0 0 11 11"><defs><style>.cls-1{fill:none;}.cls-2{clip-path:url(#clippath);}.cls-3{fill:#003b4d;}</style><clipPath id="clippath"><rect class="cls-1" width="11" height="11"/></clipPath></defs><g class="cls-2"><g><path class="cls-3" d="m10.7004,5.157L5.5807.2883c-.2015-.1917-.465-.2883-.7301-.2883-.2635,0-.5286.0966-.7301.2883L1.317,2.9536c-.4034.3833-.4034,1.0172,0,1.4017l.465.4533h1.0724l-1.0014-.9631c-.0698-.0676-.0798-.1506-.0798-.1916,0-.0398.0101-.1207.0798-.1879l.3702-.3413,1.759,1.6841h1.6886l-2.6036-2.4879,1.5897-1.5177c.0694-.0664.1519-.0784.1937-.0784.0431,0,.1243.0084.1953.0747l5.1194,4.8675c.0697.0676.0798.1447.0798.1858,0,.0398-.0176.117-.0873.1846l-.2904.2688v1.0196l.8265-.7786c.403-.3845.4107-1.0068.0064-1.39Z"/><path class="cls-3" d="m8.2983,5.2656H1.0585c-.5705,0-1.0585.4364-1.0585.9789v2.6049h9.3188v-2.6049c0-.5425-.45-.9789-1.0205-.9789Z"/><path class="cls-3" d="m0,10.0149c0,.5426.488.9851,1.0585.9851h7.2398c.5705,0,1.0205-.4425,1.0205-.9851v-.0577H0v.0577Z"/></g></g></svg>