<?xml version="1.0" encoding="UTF-8"?><svg id="Layer_1" xmlns="http://www.w3.org/2000/svg" viewBox="0 0 23 23"><defs><style>.cls-1{fill:#fff;}</style></defs><path class="cls-1" d="m22.8505,10.0648c-.0371-.1886-.1029-.3704-.1949-.5392-.0485-.0959-.1146-.1819-.1949-.2534-.0571-.0524-.1231-.0942-.1949-.1234-.065-.2988-.1494-.5912-.2404-.8835.1884-.4353,1.4423-3.6965-1.0785-6.2171-.4822-.4868-1.0559-.8734-1.6881-1.1376-.6322-.2642-1.3104-.4009-1.9957-.402h-.4742c-.7045.0391-1.398.1927-2.0531.4548-.2923-.091-.5847-.1754-.8836-.2404-.0292-.0718-.071-.1378-.1234-.1949-.0715-.0803-.1575-.1464-.2534-.1949-.1692-.0912-.3509-.1569-.5392-.1949-.4716-.1021-.9535-.1479-1.4359-.1364-.4828-.0073-.9648.0429-1.4358.1494-.1886.0372-.3705.1029-.5392.1949-.097.0499-.1849.1158-.2599.1949-.0484.0588-.0878.1245-.117.1949-.3054.065-.6042.1494-.8966.2404-.6506-.2619-1.3398-.4155-2.04-.4548h-.4808c-.6843-.0005-1.362.134-1.9941.396-.6322.262-1.2064.6462-1.6897,1.1306C-.4736,4.5493.7868,7.83.9687,8.2653c-.0845.2923-.1689.5847-.2404.8835-.0704.0319-.136.0734-.1949.1234-.0784.0716-.1424.1576-.1884.2534-.0948.1675-.1607.3498-.1949.5392C.0436,10.5358-.0066,11.0177.0007,11.5005c-.0073.4828.0429.9648.1494,1.4357.0343.1894.1001.3717.1949.5393.046.0957.11.1817.1884.2533.0589.05.1245.0916.1949.1235.0715.2988.1559.5911.2404.8835-.1819.4352-1.4423,3.6965,1.0785,6.2106,2.5208,2.5142,5.7823,1.2668,6.2176,1.0784.2859.091.5717.1625.8706.2274.031.0763.075.1466.1299.2079.075.0791.1629.145.2599.1949.1688.092.3506.1577.5392.1949.471.1065.953.1567,1.4358.1494.4829.0073.9649-.0429,1.4359-.1494.1883-.038.37-.1037.5392-.1949.0959-.0485.1819-.1146.2534-.1949.0524-.0571.0942-.1231.1234-.1949.2989-.065.5913-.1494.8836-.2404.4353.1884,3.6968,1.4423,6.2111-1.0784,2.5144-2.5206,1.2994-5.7039,1.0785-6.1976.091-.2924.1754-.5912.2404-.8965.0718-.0292.1378-.071.1949-.1235.0803-.0715.1464-.1574.1949-.2533.092-.1688.1578-.3507.1949-.5393.1993-.9467.1993-1.9246,0-2.8714ZM16.8148,1.4504c.6343-.0507,1.272.0394,1.8673.2641.5953.2246,1.1335.5782,1.5761,1.0352.5282.521.9165,1.1668,1.1288,1.8777.2124.7109.242,1.4638.0862,2.1891-1.0905-2.3184-2.9532-4.1855-5.2691-5.2816.1884-.039.3899-.065.6107-.0845Zm-6.7503-.2793c.075-.0375.1533-.068.2339-.091.3947-.0864.7979-.1278,1.2019-.1234.4019-.0048.803.0366,1.1955.1234.0822.0217.1626.0499.2404.0845v5.0478c-.4662-.1347-.951-.1939-1.4359-.1754-.4846-.023-.9697.034-1.4358.1689V1.1711Zm-7.3286,1.5722c.3977-.4096.8733-.7356,1.3988-.9588.5255-.2231,1.0904-.3389,1.6613-.3405.3396-.0092.6793.0169,1.0135.078-2.3185,1.0904-4.1858,2.953-5.282,5.2686-.1532-.7218-.1229-1.4706.0883-2.1777.2111-.7071.5963-1.3499,1.1202-1.8696Zm-1.6632,9.9526c-.156-.7893-.156-1.6015,0-2.3907.0325-.1105.0715-.1819.091-.2404h5.0611c-.1503.4631-.2163.9493-.1949,1.4357-.0168.4862.0491.9717.1949,1.4357H1.1637c-.0344-.0785-.0648-.1587-.091-.2403Zm1.6632,7.5619c-.525-.5204-.9107-1.1643-1.1219-1.8726-.2112-.7084-.2409-1.4584-.0866-2.1812,1.0962,2.3157,2.9635,4.1782,5.282,5.2686-.7264.1558-1.4803.1262-2.1923-.0861-.7119-.2124-1.3589-.6005-1.8813-1.1287Zm10.2003,1.5786c-.0779.0343-.1583.0626-.2404.0845-.3925.0868-.7936.1282-1.1955.1234-.404.0044-.8072-.037-1.2019-.1234-.0803-.0152-.1588-.0392-.2339-.0715v-5.0672c.4661.1357.9506.1971,1.4358.1819.4866.0253.9736-.0408,1.4359-.1949v5.0672Zm.8121-5.5934c-.0866-.1372-.2065-.2502-.3484-.3286-.142-.0783-.3016-.1195-.4637-.1197-.0603-.0095-.1217-.0095-.182,0-.4031.1366-.8289.194-1.2539.1689-.4271.0254-.8551-.0319-1.2604-.1689-.0581-.0095-.1173-.0095-.1754,0-.1635.0009-.3241.0438-.4663.1246-.1422.0808-.2613.1967-.3458.3367-1.1044-.5274-1.9926-1.4202-2.5143-2.5272.1376-.0861.2509-.2058.3294-.3479.0784-.1421.1194-.3018.1189-.4641.0018-.0602-.0093-.12-.0325-.1754-.131-.4066-.186-.8339-.1624-1.2604-.0233-.4196.0295-.84.1559-1.2408.0232-.0555.0343-.1153.0325-.1754.0006-.1609-.0388-.3194-.1148-.4611-.076-.1418-.1861-.2624-.3205-.3509.5173-1.1025,1.4014-1.9912,2.5013-2.5141.0857.138.2053.2517.3475.3302.1422.0785.3022.1192.4646.1181.0581.0094.1173.0094.1754,0,.4053-.137.8333-.1944,1.2604-.1689.425-.0251.8508.0323,1.2539.1689.0603.0095.1217.0095.182,0,.1621-.0002.3217-.0414.4637-.1197.1419-.0784.2618-.1914.3484-.3285,1.0986.5247,1.9822,1.4129,2.5013,2.5141-.1376.0861-.2509.2059-.3294.3479-.0784.1421-.1193.3018-.1189.4641-.0127.0578-.0127.1176,0,.1754.1359.4056.1932.8333.1689,1.2603.0243.427-.033.8548-.1689,1.2603-.0127.0578-.0127.1177,0,.1754-.0004.1623.0405.3221.1189.4642.0785.142.1918.2618.3294.3479-.5228,1.0917-1.4031,1.9719-2.4948,2.4947Zm6.497,3.9953c-.5221.5287-1.1691.9172-1.8811,1.1295-.7121.2124-1.4662.2417-2.1926.0853,2.3243-1.094,4.1944-2.964,5.2886-5.2881.1615.7282.1359,1.4854-.0742,2.2011-.2102.7156-.5982,1.3664-1.1278,1.8917l-.0129-.0195Zm1.6632-7.5619c-.0184.0816-.0423.1619-.0715.2404h-5.0676c.1541-.4622.2202-.9492.1949-1.4358.0253-.4865-.0408-.9735-.1949-1.4357h5.0611c.0402.0761.0707.1568.091.2404.0868.3924.1282.7935.1234,1.1953.0063.4084-.0351.8161-.1234,1.2149l-.013-.0195Z"/></svg>