<?xml version="1.0" encoding="UTF-8"?><svg id="Layer_1" xmlns="http://www.w3.org/2000/svg" viewBox="0 0 14 14"><defs><style>.cls-1{fill:#f8931a;}.cls-2{fill:#fff;fill-rule:evenodd;}</style></defs><circle class="cls-1" cx="7" cy="7" r="7"/><path class="cls-2" d="m10.4091,6.1007c.1435-.9781-.5867-1.504-1.5852-1.8547l.3239-1.325-.7908-.201-.3153,1.2901c-.2079-.0528-.4214-.1027-.6336-.1521l.3176-1.2986-.7904-.201-.3241,1.3245c-.1721-.04-.341-.0795-.505-.1211l.0009-.0041-1.0906-.2777-.2104.8614s.5867.1371.5744.1456c.3203.0816.3782.2977.3685.4691l-.3689,1.5095-.0014.0057-.5171,2.1145c-.0392.0992-.1385.2481-.3624.1916.0079.0117-.5748-.1463-.5748-.1463l-.3926.9232,1.0291.2617c.1149.0294.2285.0596.3409.0895.0748.0199.1491.0396.2229.0589l-.3273,1.3401.7899.201.3241-1.3259c.2158.0597.4252.1149.6302.1668l-.323,1.3197.7908.201.3273-1.3376c1.3485.2602,2.3625.1552,2.7894-1.0887.3439-1.0016-.0171-1.5793-.7266-1.956.5167-.1215.9059-.4682,1.0097-1.1842Zm-1.562.0012c-.2044.8454-1.378.5221-1.916.3739h0c-.0489-.0135-.0925-.0255-.1297-.0351l.3937-1.6302c.0451.0116.1004.0243.1631.0386.5571.1273,1.6977.388,1.4889,1.2528Zm-.2446,2.583c-.2242.919-1.6346.539-2.2799.3652h0c-.058-.0156-.1099-.0296-.1541-.0408l.4343-1.7756c.0539.0137.1197.0288.1943.0458.6674.1527,2.0352.4658,1.8055,1.4053Z"/></svg>