<?xml version="1.0" encoding="UTF-8"?><svg id="Layer_1" xmlns="http://www.w3.org/2000/svg" viewBox="0 0 24.053 26.2499"><defs><style>.cls-1{fill:#90918d;fill-rule:evenodd;}</style></defs><path class="cls-1" d="m22.1049,10.0772c.6716,1.4496,1.0195,3.028,1.0195,4.6256-.0009,1.5335-.3227,3.0498-.9447,4.4515-.622,1.4017-1.5305,2.6577-2.667,3.6873l.8706,1.8495c.1756-.0704.3704-.077.5503-.0186.18.0584.3338.178.4346.3381.1008.1601.1423.3505.1172.538-.025.1875-.1151.3603-.2544.4883s-.3191.2031-.5081.2121c-.189.0091-.3752-.0484-.5261-.1624-.151-.1141-.2572-.2775-.3001-.4617-.0429-.1843-.0198-.3778.0652-.5468l-1.6302-1.3025c-1.8265,1.2593-3.9913,1.9362-6.2098,1.9419-2.2185.0057-4.3868-.6603-6.2197-1.9102l-1.5852,1.2708c.0848.1688.1077.3619.0648.5458-.0429.1839-.149.3469-.2997.4607-.1507.1138-.3366.1712-.5252.1621-.1886-.0091-.3681-.084-.5072-.2118-.1391-.1277-.229-.3002-.254-.4874-.0251-.1872.0163-.3772.1169-.537.1006-.1598.254-.2793.4336-.3377.1796-.0583.374-.0519.5493.0183l.8455-1.7993c-1.1806-1.0581-2.1187-2.3587-2.7501-3.8129-.6314-1.4543-.9411-3.0277-.908-4.6128.0331-1.585.4083-3.1441,1.0998-4.5707.6916-1.4266,1.6831-2.687,2.9069-3.6948l-.7781-1.0396c-1.1543.9139-2.1294,2.0336-2.8759,3.3025-.4926-.4778-.8753-1.0571-1.1214-1.6977C.0683,6.1251-.0354,5.4386.0106,4.7539c.046-.6847.2405-1.3512.5701-1.9532.3296-.602.7863-1.1249,1.3384-1.5325.5521-.4076,1.1863-.6902,1.8586-.8279.6723-.1378,1.3665-.1275,2.0345.0301.6679.1576,1.2935.4588,1.8333.8826.5398.4238.9808.9601,1.2924,1.5715-1.2165.2864-2.3795.7649-3.4452,1.4175l.7648,1.0238c1.5429-.9723,3.3044-1.5436,5.1243-1.6619v-1.2748c-.239-.1551-.4214-.3834-.52-.6506-.0987-.2673-.1083-.5593-.0274-.8325.0809-.2732.248-.5129.4763-.6834.2282-.1705.5055-.2626.7904-.2626s.5622.0921.7905.2626c.2282.1705.3953.4102.4762.6834.0809.2732.0713.5652-.0274.8325-.0986.2673-.281.4955-.52.6506v1.2788c1.8709.1214,3.6794.7209,5.2524,1.7411l.7187-.9617c-1.1273-.7273-2.3707-1.2563-3.6765-1.5641.3116-.6115.7527-1.1477,1.2925-1.5715.5397-.4238,1.1653-.725,1.8333-.8826.6679-.1576,1.3621-.1679,2.0344-.0301.6723.1378,1.3066.4203,1.8586.8279.5521.4076,1.0088.9306,1.3384,1.5325.3296.602.5242,1.2685.5701,1.9532.046.6847-.0576,1.3713-.3037,2.0119-.2462.6406-.6288,1.22-1.1214,1.6978-.7001-1.1885-1.6012-2.2466-2.6632-3.1269l-.7187.9736c1.2188,1.0329,2.198,2.3188,2.8696,3.7683Zm-17.9738-.6976c-1.0528,1.5757-1.6148,3.4281-1.6148,5.3232.0024,2.5404,1.0127,4.976,2.809,6.7723,1.7963,1.7964,4.232,2.8066,6.7724,2.8091,1.895,0,3.7475-.562,5.3232-1.6148,1.5756-1.0528,2.8037-2.5492,3.5289-4.3.7252-1.7508.9149-3.6773.5452-5.5359-.3697-1.8586-1.2822-3.5659-2.6222-4.9058-1.34-1.34-3.0472-2.2525-4.9059-2.6222-1.8586-.3697-3.7851-.1799-5.5359.5452-1.7507.7252-3.2472,1.9533-4.3,3.5289Zm13.185,7.1853c.0145.0793.0145.1546.0145.2299l.0053.0594v.0938c.0079.4547-.1235.9009-.3765,1.2788-.2533.3527-.5847.642-.9683.8455-.4204.224-.8733.3809-1.3422.465-.4907.0894-.9887.1336-1.4875.1321h-4.6157v-5.7109h-.0185s-3.4822-.2272-4.3012-.2272c0,0,2.3184-.1928,4.2999-.2272h.0185l-.0105-3.7702h4.1546c.4858.0002.9711.0307,1.4531.0911.4562.0545.9013.1788,1.3197.3686.3829.1741.7159.4417.9684.7781.2457.3355.3778.782.3778,1.3303.0109.2577-.0303.5151-.1211.7566-.0908.2415-.2293.4622-.4073.6489l-.0899.0925c-.0369.0398-.0761.0773-.1175.1123-.0978.0872-.2056.1626-.3211.2246h-.0066l-.0541.029c-.6886-.2841-1.4075-.488-2.1427-.6076.2104-.0785.4011-.202.5588-.362.0221-.0275.0429-.0562.062-.0859.089-.1454.1348-.313.1322-.4835.0051-.1681-.044-.3335-.1401-.4716-.0948-.1273-.2202-.2286-.3646-.2946-.1683-.0758-.346-.1286-.5284-.1572-.1913-.0309-.3848-.0468-.5786-.0475h-1.6288v1.897h.0819c2.6698.1572,4.4862.6499,5.4003,1.4624.38.331.64.7782.7398,1.2721l.0185.0859v.033c.0014.007.0028.0142.0043.0214.0057.0279.0116.0564.0116.0817v.0554Zm-2.613.5469l.0105-.0211c.074-.1321.2761-.642-.1836-1.2484-.325-.3566-1.0489-.8666-2.7028-1.3065l-1.0291-.2364.1321.1638c.0069.0073.0131.0153.0185.0238.0427.0492.0746.1068.0938.169l.0211.0701v.0317c.0219.1001.0312.2026.0278.3051-.004.3118-.0198,1.8164-.0198,2.469v.2021l.0871.0119h2.045c.1942-.0006.3879-.0192.5786-.0554.1864-.0323.3655-.0981.5284-.1942.1495-.0913.2779-.2133.3765-.358.0016-.0023.0034-.0045.0051-.0068.0055-.0069.0108-.0137.0108-.0197Z"/></svg>