<?xml version="1.0" encoding="UTF-8"?><svg id="Layer_1" xmlns="http://www.w3.org/2000/svg" viewBox="0 0 90 33"><defs><style>.cls-1{fill:#007eac;}.cls-2{fill:#37b34a;}</style></defs><path class="cls-2" d="m35.2391,31.6485c2.9602,0,5.9249.1041,8.8799-.0194,9.0003-.3763,17.813-1.7006,26.0545-5.5903,2.7285-1.2877,5.2695-2.8682,7.3135-5.1291,3.9677-4.3884,3.6168-9.5396-.8423-13.5049-3.8732-3.4443-8.5057-5.3879-13.3786-6.8899-.4877-.1503-.9764-.2972-1.6925-.5149,7.1795.9705,13.9907,2.4211,20.148,5.8985,2.0583,1.1624,4.0853,2.6086,5.66,4.344,3.8902,4.2876,3.3623,9.2285-1.0296,13.0653-3.9015,3.4082-8.5497,5.3355-13.4375,6.7775-4.557,1.3601-9.2551,2.1984-14.0032,2.4986-3.1026.1881-6.221.5238-9.3133.3822-4.805-.2199-9.5939-.7899-14.3896-1.2114l.0307-.1062Z"/><path class="cls-2" d="m9.186,22.8355c-1.1805.6156-2.8014.9447-4.2636.9447-3.33,0-4.9225-2.039-4.9225-4.9507,0-3.6217,2.6721-7.547,6.8053-7.547,2.3735,0,3.8928,1.3617,3.8964,3.3585,0,3.085-3.2421,4.0706-7.893,3.9628-.035.5838.0749,1.1671.3198,1.6987.474.8161,1.3434,1.2254,2.4688,1.2254,1.1521.0051,2.2887-.2641,3.3148-.7853l.2739,2.0929Zm-2.7507-9.4127c-1.7865,0-2.9771,1.6023-3.3322,3.0512,2.9689.0327,4.8696-.3697,4.8696-1.809,0-.7702-.6138-1.2422-1.5374-1.2422Z"/><path class="cls-1" d="m20.2578,23.1018c-1.0881.4706-2.2654.7019-3.4516.6782-3.0238,0-4.8677-1.9339-4.8677-4.7873,0-4.1724,3.1748-7.7035,7.6391-7.7035.8456-.0094,1.6845.1494,2.4674.467l-.7452,2.2207c-.571-.2504-1.1895-.3753-1.8134-.3661-2.7896,0-4.5385,2.549-4.5385,5.0497,0,1.7881,1.0371,2.8044,2.646,2.8044.8845-.0033,1.7576-.199,2.5581-.5733l.1058,2.2102Z"/><path class="cls-1" d="m22.2775,23.5221l3.3287-17.4559h2.8801l-1.4088,7.2807.0495.0034c1.0091-1.2573,2.3527-2.0678,4.0362-2.0678,1.6472,0,3.0167,1.0167,3.0167,3.2247-.0118.7035-.0835,1.4048-.2143,2.0962l-1.3198,6.9187h-2.8775l1.2802-6.7151c.1014-.5134.1538-1.0352.1564-1.5584,0-.9286-.4205-1.6325-1.5073-1.6325-1.3972,0-2.9887,1.6656-3.4647,4.1947l-1.078,5.7113h-2.8774Z"/><path class="cls-1" d="m45.3181,22.8355c-1.1805.6156-2.8014.9447-4.2636.9447-3.33,0-4.9225-2.039-4.9225-4.9507,0-3.6217,2.6721-7.547,6.8053-7.547,2.3735,0,3.8929,1.3617,3.8965,3.3585,0,3.085-3.2422,4.0706-7.8931,3.9628-.0349.5838.0749,1.1671.3198,1.6987.474.8161,1.3434,1.2254,2.4688,1.2254,1.1521.0051,2.2887-.2641,3.3148-.7853l.274,2.0929Zm-2.7508-9.4127c-1.7865,0-2.9771,1.6023-3.3321,3.0512,2.9689.0327,4.8696-.3697,4.8696-1.809,0-.7702-.6138-1.2422-1.5375-1.2422Z"/><path class="cls-1" d="m56.3898,23.1018c-1.088.4706-2.2654.7019-3.4516.6782-3.0237,0-4.8677-1.9339-4.8677-4.7873,0-4.1724,3.1748-7.7035,7.6392-7.7035.8455-.0094,1.6844.1494,2.4674.467l-.7453,2.2207c-.5709-.2504-1.1895-.3753-1.8134-.3661-2.7896,0-4.5384,2.549-4.5384,5.0497,0,1.7881,1.0371,2.8044,2.646,2.8044.8845-.0033,1.7576-.199,2.5581-.5733l.1057,2.2102Z"/><path class="cls-1" d="m58.4124,23.5221l3.3288-17.4559h2.8636l-2.0435,10.6664h.0495c.369-.4432.7736-.9066,1.1018-1.2857l3.5991-3.8939h3.5528l-5.1776,4.9256,3.456,7.0435h-3.1994l-2.4638-5.4729-1.4141,1.3061-.7926,4.1669h-2.8606Z"/></svg>