<?xml version="1.0" encoding="UTF-8"?><svg id="Layer_1" xmlns="http://www.w3.org/2000/svg" viewBox="0 0 39.4744 36.809"><defs><style>.cls-1{fill:#003b4d;}</style></defs><path class="cls-1" d="m9.2909,29.7456h4.8713c.0119-.026.0238-.052.0357-.078-.9889-1.1027-2.0599-2.126-3.111-3.2171.2891-.2429.5539-.4955.8479-.7063.6007-.4305,1.2196-.8349,1.8252-1.2585.1464-.1024.2459-.0792.3612.0425.6013.6346,1.2819,1.1638,2.0386,1.5984,1.3527.777,2.8012,1.0993,4.3544,1.0932,2.1069-.0083,3.8853-.8062,5.4654-2.1528.2308-.1967.4544-.4022.6897-.5931.0449-.0365.1486-.0555.1924-.0283,1.8664,1.1578,3.4914,2.571,4.623,4.5045.9836,1.6807,1.5205,3.5058,1.691,5.4423.0695.7904.0789,1.5862.1168,2.4034-.1169.0059-.1906.0129-.2644.0129-6.2565.0005-12.5129.0011-18.7694-.0045-.1223-.0002-.2664-.0456-.3631-.1196-.777-.5951-1.5792-1.1629-2.3079-1.8145-1.1756-1.0511-1.7665-2.4505-2.1034-3.9712-.0807-.3641-.1246-.7366-.1934-1.1533Z"/><path class="cls-1" d="m27.8699,17.4012c.1146,3.9507-3.2262,7.8521-7.8754,7.7934-4.0991-.0518-7.6166-3.5793-7.6066-7.7845.01-4.2062,3.5914-7.767,7.8064-7.6987,4.253.0689,7.6886,3.4627,7.6756,7.6898Z"/><path class="cls-1" d="m3.8728,11.3776c-.0694-3.1901,2.1682-5.7628,4.8998-6.2292,2.6825-.458,5.3516.9948,6.4548,3.7512.0972.2428.1661.4984.2404.7505.0529.1796-.0203.3047-.178.3821-.0309.0152-.0599.0346-.091.0492-1.72.8106-2.8168,2.2351-3.5754,3.9895-.4196.9706-.6203,1.9969-.6607,3.0569-.0072.1904-.0792.2409-.2345.2652-.6702.105-1.3399.0628-1.9995-.0556-2.1935-.3938-3.6096-1.7962-4.4919-3.8676-.2926-.687-.3631-1.4181-.364-2.0921Z"/><path class="cls-1" d="m5.4481,23.6469c1.8266,1.6781,3.6254,3.3307,5.4243,4.9833-.0073.0243-.0146.0486-.0219.073h-3.0908c-.0216,3.3145,1.0624,6.081,3.854,8.1058-.0679-.0076-.1373-.0087-.2033-.0239-1.6869-.3882-3.2895-.9645-4.6974-1.9712-1.7924-1.2817-2.8923-3.0012-3.4396-5.0692-.067-.2529-.1426-.5043-.1964-.7599-.0331-.1571-.0997-.2149-.2745-.2182-.8489-.0156-1.6975-.047-2.5462-.0735-.0637-.002-.1272-.0091-.2563-.0188,1.8314-1.69,3.6245-3.3447,5.4481-5.0274Z"/><path class="cls-1" d="m9.3211,23.6511c-.9812-.9688-1.9364-1.912-2.9236-2.8868-.3767.3783-.7243.7337-1.079,1.0821-.8265.8117-1.6536,1.6229-2.4894,2.4254-.0832.0799-.227.1362-.3444.1392-.5749.015-1.1505.0089-1.7258.0086-.1262-.0001-.2528-.0019-.3785-.0117-.3429-.0267-.4366-.1297-.35-.4498.181-.6686.3495-1.3434.5834-1.9948.8125-2.262,2.2997-3.9932,4.3891-5.2399.1257-.0749.1896-.0508.2838.0359.6834.6284,1.4232,1.1763,2.2934,1.5425,1.2443.5236,2.5383.595,3.8611.4275.4294-.0544.4317-.0562.5261.3477.1359.5812.2674,1.1635.402,1.7451.0475.2051.0127.334-.2078.46-.7847.4482-1.4731,1.0243-2.12,1.6465-.2387.2297-.468.4688-.7204.7225Z"/><path class="cls-1" d="m39.4744,7.4928l-2.3234,3.3793,1.4674,3.8477-3.9328-1.1863-3.1893,2.5719-.1073-4.1124-3.4385-2.2582,3.8665-1.3552,1.0642-3.9676,2.4969,3.2748,4.0963-.194Z"/><path class="cls-1" d="m39.0836,19.0725l-1.4806,2.1535.9351,2.4521-2.5063-.7561-2.0325,1.6391-.0683-2.6207-2.1913-1.4391,2.4641-.8637.6782-2.5284,1.5911,2.0869,2.6105-.1236Z"/><path class="cls-1" d="m29.5609,1.9634l-1.4806,2.1535.9351,2.452-2.5063-.756-2.0324,1.6391-.0684-2.6208-2.1913-1.4391,2.4641-.8637.6782-2.5284,1.5912,2.0869,2.6104-.1236Z"/></svg>