<?xml version="1.0" encoding="UTF-8"?><svg id="Layer_1" xmlns="http://www.w3.org/2000/svg" viewBox="0 0 64.5652 77"><defs><style>.cls-1{fill:#003b4d;}.cls-2{fill:#fff;}.cls-3,.cls-4{fill:#b8c8cd;}.cls-4{isolation:isolate;opacity:.2;}</style></defs><path class="cls-4" d="m32.1023.0116c-.2003,0-.4043.0645-.5712.1289L1.1425,12.9399c-.6751.2578-1.1425.9741-1.1425,1.6904,0,19.7504,1.2427,31.1168,5.9205,39.7906,4.7111,8.6415,12.6863,14.1635,25.3365,22.2863.6047.3904,1.4467.3904,2.0514,0,12.6863-8.1222,20.6253-13.6446,25.3365-22.2863,4.6777-8.6737,5.9204-20.0438,5.9204-39.7943,0-.7162-.4377-1.4289-1.1092-1.6904L33.0419.1405c-.2671-.1289-.6047-.1612-.9423-.1289h.0027Z"/><path class="cls-3" d="m32.1264,5.1261c-.1737,0-.3507.0559-.4954.1118L5.2801,16.3366c-.5854.2236-.9907.8446-.9907,1.4658,0,17.1263,1.0776,26.9824,5.1338,34.5038,4.0851,7.4933,11.0007,12.2816,21.9701,19.3252.5243.3385,1.2544.3385,1.7788,0,11.0007-7.0431,17.8849-11.8317,21.9701-19.3252,4.0562-7.5213,5.1338-17.3807,5.1338-34.507,0-.6211-.3796-1.2391-.9618-1.4658l-26.3732-11.0956c-.2316-.1118-.5243-.1397-.817-.1118h.0024Z"/><path class="cls-1" d="m32.1524,10.7977c-.1442,0-.2911.0464-.4112.0928l-21.8752,9.2136c-.486.1856-.8224.7012-.8224,1.2168,0,14.2174.8946,22.3995,4.2619,28.6433,3.3912,6.2206,9.1322,10.1956,18.2384,16.0428.4353.281,1.0414.281,1.4767,0,9.1322-5.8468,14.8471-9.8221,18.2385-16.0428,3.3672-6.2437,4.2618-14.4285,4.2618-28.6459,0-.5156-.3151-1.0286-.7984-1.2168l-21.8937-9.211c-.1923-.0928-.4353-.116-.6783-.0928h.002Z"/><path class="cls-2" d="m32.2947,24.1499c-1.8906,0-3.4394,1.472-3.4394,3.2972l.7023,11.8792c0,1.4488,1.2123,2.6424,2.7371,2.6424,1.5007,0,2.713-1.1936,2.713-2.6424l.7023-11.8792c0-1.8252-1.5514-3.2972-3.4153-3.2972h0Z"/><path class="cls-2" d="m32.2947,43.9331c-1.8906,0-3.4394,1.472-3.4394,3.2972s1.5515,3.2972,3.4394,3.2972c1.8639,0,3.4153-1.472,3.4153-3.2972s-1.5514-3.2972-3.4153-3.2972h0Z"/></svg>