<?xml version="1.0" encoding="UTF-8"?><svg id="Layer_1" xmlns="http://www.w3.org/2000/svg" viewBox="0 0 44 44"><defs><style>.cls-1{fill:#fff;}.cls-2{fill:#fe1b0b;}</style></defs><path class="cls-2" d="m22,44c12.1503,0,22-9.8497,22-22S34.1503,0,22,0,0,9.8497,0,22s9.8497,22,22,22Z"/><path class="cls-1" d="m21.7208,8.1817c.0267.0054.0536.0093.0807.0116.3623.0123.7235.0394,1.0835.0815.5633.0652,1.1219.1659,1.6725.3014,2.0382.5109,3.9353,1.4741,5.5505,2.8182,1.6152,1.3442,2.9071,3.0347,3.7798,4.9462.1127.2477.2119.5016.317.7528.0102.0245.0172.0504.0282.083-.0328.0016-.0568.0039-.0808.0039-1.5321.0002-3.0641.0006-4.5962.0013-.023.0019-.046-.0032-.066-.0146-.0201-.0114-.0363-.0286-.0465-.0492-1.2088-1.9645-2.9244-3.2789-5.1134-3.9835-.5216-.1656-1.0566-.2855-1.5989-.3581-.5771-.0803-1.16-.1104-1.7422-.09-1.3942.0361-2.7626.3838-4.0048,1.0177-2.0755,1.0708-3.5354,2.6975-4.3797,4.8799-.2465.6421-.419,1.3101-.514,1.9913-.323,2.2518.1263,4.5467,1.2748,6.5105.9035,1.5622,2.2374,2.8315,3.8426,3.6564.7914.4086,1.6402.695,2.5174.8494,2.0586.3711,4.1822.0108,6.0033-1.0185,1.5235-.8499,2.7987-2.0829,3.6994-3.577.0144-.0291.0372-.0532.0655-.0691.0283-.0159.0608-.0229.0931-.0199,1.5121.0023,3.0242.0029,4.5362.0017h.0977c.0162.0356-.0063.061-.0162.0868-.1931.5041-.4168.996-.6701,1.4727-.8727,1.6415-2.0662,3.091-3.5099,4.2624-1.4436,1.1714-3.1078,2.0408-4.8939,2.5566-.6143.1775-1.2405.311-1.8739.3994-.4333.0606-.8681.103-1.3053.1208-.022.0023-.0439.0061-.0654.0115h-1.1098c-.0244-.004-.0487-.01-.0733-.0116-.1644-.0109-.3291-.0193-.4935-.0315-.4581-.0355-.9141-.0951-1.3659-.1787-.9394-.1694-1.8581-.4381-2.7407-.8015-2.2001-.8929-4.1336-2.3367-5.6147-4.1926-1.8437-2.2624-2.9072-5.0597-3.0324-7.9755-.0037-.0743-.0172-.1481-.0261-.2221v-.7953c.0066-.0289.0116-.0581.0151-.0876.0166-.2418.0276-.4841.049-.7256.1534-1.7344.638-3.4233,1.4275-4.9751,1.5922-3.12,4.2931-5.5322,7.5725-6.7629.7509-.2812,1.525-.496,2.3134-.6419.3611-.0669.7239-.1233,1.0895-.1569.3207-.0296.6427-.045.9641-.0672.022-.0026.0439-.0064.0655-.0113h.7948Z"/><path class="cls-1" d="m25.7959,23.7919c-.5059,1.229-1.346,2.1327-2.5544,2.6738-.9858.4478-2.0958.5419-3.1429.2663-1.0488-.2667-1.9778-.8775-2.6384-1.7347-.6606-.8571-1.0147-1.911-1.0056-2.9932.0091-1.0821.3808-2.1299,1.0558-2.9758.675-.8459,1.6141-1.441,2.6672-1.6901,1.1492-.2834,2.363-.1229,3.399.4495,1.0431.5577,1.8441,1.4801,2.2501,2.591h10.7378l.0057.0146c-.0231.0169-.046.0341-.0693.0507-1.4653,1.0442-2.9305,2.0884-4.3958,3.1325-.0834.0594-.168.1174-.2498.179-.0329.0273-.0752.0404-.1178.0367-.0198-.0019-.0399-.0003-.0599-.0003h-5.8817Z"/></svg>