<?xml version="1.0" encoding="UTF-8"?><svg id="Layer_1" xmlns="http://www.w3.org/2000/svg" viewBox="0 0 44 44"><defs><style>.cls-1{fill:#fe1b0b;}</style></defs><path class="cls-1" d="m21.12,0h2.42c.1386.0424.28.0751.4231.0981,2.7973.2654,5.4687.9816,7.9593,2.2938,6.2555,3.2957,10.1512,8.396,11.6294,15.32.1861.8715.3006,1.7583.4482,2.6381v3.3c-.1078.6645-.2126,1.3295-.3239,1.9933-.7152,4.318-2.7078,8.3226-5.7209,11.4971-3.013,3.1746-6.9082,5.3735-11.1829,6.3129-1.0304.229-2.0811.3667-3.1223.5467h-3.3c-.8798-.1473-1.7631-.2768-2.639-.4447C9.05,41.8958,2.0828,34.9304.447,26.2936c-.173-.9134-.2991-1.8355-.447-2.7536v-3.08c.151-.9349.2628-1.8783.4634-2.8024.2282-1.0514.5358-2.0856.8088-3.1273l.1398.033c-.6124,2.384-.8462,4.788-.4299,7.2305.6531,3.8327,2.7102,6.5331,6.3788,7.9422,2.779,1.0674,5.6239,1.0875,8.4881.471,4.6045-.991,8.5703-3.2347,12.1108-6.287.1743-.1502.3546-.2934.6209-.5132-.0203.2638-.0196.4038-.0433.5397-.2476,1.4237-.5107,2.8448-.7458,4.2706-.1789,1.0847.5414,1.965,1.6318,2.0353,1.4399.0929,2.4107-.6718,2.683-2.1796.6115-3.3857,1.2085-6.7741,1.7908-10.165.247-1.4372-.4646-2.2745-1.9059-2.2775-3.2997-.007-6.5995-.0047-9.8992.0068-.4394.0042-.8757.0738-1.2946.2064-1.0543.3337-1.6604,1.5047-1.4542,2.715.1435.8421.8343,1.2882,2.0113,1.2903,1.4482.0025,2.8964-.0002,4.3446-.0007.1895-.0001.379-.0001.5684,0l.0988.1901c-.1695.1069-.3325.2238-.4881.3501-1.8202,1.6519-3.8431,2.989-6.1187,3.9281-2.3907.9866-4.8627,1.5711-7.4482,1.0717-3.094-.5977-5.2638-2.3331-6.0906-5.4679-.5116-1.9397-.3144-3.9067.136-5.825,1.3992-5.9593,5.097-10.0803,10.5023-12.7151,1.3288-.6477,2.8358-.9299,4.2609-1.3801Z"/></svg>