<?xml version="1.0" encoding="UTF-8"?><svg id="Layer_1" xmlns="http://www.w3.org/2000/svg" viewBox="0 0 51 29.5267"><defs><style>.cls-1,.cls-2{fill:#003b4d;}.cls-2{fill-rule:evenodd;}</style></defs><path class="cls-1" d="m38.2273,3.3883c.6519-.8972,1.0618-1.9489,1.1897-3.0526-2.1519-.4695-4.3812-.4462-6.5229.0682-2.1417.5144-4.141,1.5066-5.8498,2.9034,3.6177-1.3172,7.5846-1.2885,11.183.081Z"/><path class="cls-1" d="m40.8316.7132c1.9821.6393,3.8054,1.6974,5.3476,3.1035l-2.7704,2.7818c-1.1448-1.0545-2.4352-1.9369-3.8312-2.6198.6519-.9824,1.0801-2.0974,1.254-3.2655Z"/><path class="cls-1" d="m44.4401,7.6371c1.0485,1.1514,1.9259,2.4493,2.6048,3.8533.9772-.6531,2.0859-1.0807,3.2468-1.252-.635-1.9939-1.6871-3.8278-3.0857-5.3785l-2.7613,2.7772h-.0046Z"/><path class="cls-2" d="m25.5412,29.1441l.0598-.0069c.3177-.0564.6313-.1337.9389-.2315l4.5606-13.2703c-.1841-.2726-.3863-.5324-.6052-.7776l-.0529-.0694c-2.4966-2.7726-5.8216-5.323-9.5033-6.5958-3.6011-1.2498-7.7268-1.3123-11.3625-.6966l-.1243.0208-.0368-.0139h-.0437c-.3169.0561-.6298.1334-.9365.2314l-4.5629,13.2727c.1861.2703.3882.5292.6052.7753l.0345.0416c2.4897,2.7841,5.8768,5.3878,9.494,6.6259,3.6172,1.2382,7.7706,1.3122,11.4293.6943h.1058Zm-2.7198-11.0324l1.0769.3611-1.2518,3.6404-1.0769-.3587.428-1.2891-1.6728-.5832-.4303,1.3053-1.0769-.3587.4395-1.31-1.6637-.5994-.4303,1.3053-1.0768-.3587.4279-1.3007-1.6728-.5832-.4602,1.2937-1.0769-.3587.4303-1.3006-1.6775-.5855-.4303,1.3029-1.0768-.3587,1.2586-3.6705,1.0769.3587-.4257,1.3053,1.6729.5786.4372-1.3007,1.0769.3587-.4372,1.3007,1.6728.5878.4487-1.2937,1.0447.3865-.428,1.3007,1.6843.5832.428-1.3007,1.0769.3587-.428,1.3007,1.6844.5855.428-1.303Z"/><path class="cls-1" d="m.1384,12.2776c.5338-1.5506,2.9453-3.0919,6.1898-4.0848l-3.7967,11.1504C.5755,16.5406-.3771,13.8398.1384,12.2776Z"/><path class="cls-1" d="m28.6204,28.406l3.8243-11.1365c1.9398,2.8095,2.9177,5.5034,2.3655,7.0586-.5523,1.5553-2.9477,3.0827-6.1898,4.0779Z"/><path class="cls-1" d="m47.6309,12.8445c.8926-.6559,1.9392-1.0674,3.0374-1.1942.4651,2.1638.4408,4.4051-.071,6.5582-.5118,2.1531-1.498,4.163-2.8858,5.8813,1.3111-3.6375,1.2825-7.6272-.0806-11.2453Z"/><path class="cls-1" d="m43.7446,18.9403c-1.7166,5.9478-2.7244,8.4588-4.5399,10.3033,1.1358-.226,2.2411-.5865,3.2927-1.0738l.0438-.0231c.1748-.081.3497-.169.5223-.2569l.2738-.1481.2761-.1551c.1335-.0756.2647-.1528.3935-.2314.0483-.0278.0944-.0579.1404-.088.1565-.0995.3129-.2013.4602-.3078l.0207-.0139c1.2939-1.886,2.1322-4.0497,2.4482-6.319.316-2.2692.1009-4.5813-.6281-6.7522-1.0216,1.0761-2.0157,2.6776-2.7037,5.066Z"/><path class="cls-1" d="m37.2101,4.5708c-1.0746,1.0345-2.6669,2.0319-5.0416,2.7262-2.0755.6064-3.73,1.1225-5.0715,1.6201-1.0378-.7195-2.1295-1.357-3.2651-1.907.0123-.0221.0262-.0441.0398-.0656.0093-.0147.0185-.0291.0269-.0432.1035-.1643.2071-.324.3152-.4837v-.0162c1.8751-1.3015,4.0264-2.1448,6.2827-2.4626,2.2563-.3178,4.5551-.1014,6.7136.632Z"/><path class="cls-1" d="m45.876,12.3956c-.6267-1.364-1.457-2.6236-2.4621-3.7353l-8.4379,8.4819c1.3415,2.194,2.7935,5.3901,1.8961,7.9243-.6305,1.782-2.331,3.0965-4.1074,4.0269,1.2529.3114,2.5409.4561,3.8312.4305,2.5772-1.8098,3.5252-3.2655,5.7526-10.9931.8675-2.9877,2.186-4.904,3.5275-6.1352Z"/><path class="cls-1" d="m32.164,13.4347c-.0322-.0417-.0667-.0834-.1012-.1227-1.0929-1.2118-2.2852-2.3289-3.5643-3.3396,1.1252-.3842,2.4644-.8054,4.0751-1.2682,2.973-.8679,4.8782-2.194,6.1024-3.5433,1.3561.6304,2.6085,1.4655,3.7138,2.4764l-8.2239,8.2691c-.2413-.305-.559-.5398-.9204-.6805-.0549-.2937-.1684-.5732-.3336-.8215-.2245-.3345-.4704-.6538-.7364-.9559l-.0115-.0138Z"/></svg>