<?xml version="1.0" encoding="UTF-8"?><svg id="Layer_1" xmlns="http://www.w3.org/2000/svg" viewBox="0 0 30.3024 23"><defs><style>.cls-1{fill:#ee3536;}</style></defs><path class="cls-1" d="m30.2758,16.4705v-.1333c0-.1866-.0267-.3465-.0267-.533v-.1066c0-.08-.0266-.1599-.0266-.2399v-.0799l-.0533-.1866c-.3731-1.8123-1.4925-2.7717-1.7057-2.9316-2.1055-1.8923-6.3163-3.0116-12.4994-3.3847h-.1866l-.0266-4.3974h3.8111c.4264,0,.8795.0266,1.3325.1066.4531.0799.8529.1866,1.226.3731.3465.1599.613.3731.8528.6663.2133.2932.3199.6396.3199,1.0927,0,.4264-.1066.7995-.2932,1.1193-.0533.0799-.08.1332-.1333.1865-.1066.1333-.453.4797-1.2792.8262,1.3858.2399,3.2781.6663,4.9571,1.4125.0533-.0266.08-.0533.1333-.0799.3198-.1866.533-.3465.7462-.5064.1866-.1599.2665-.2665.2665-.2665.0533-.0533.1333-.1333.2132-.2132.8262-.8528,1.226-1.9455,1.226-3.2514,0-1.2793-.2932-2.292-.8795-3.0649-.5597-.7729-1.3326-1.3859-2.2387-1.8123-.9062-.4264-1.9456-.6929-3.0649-.8528-1.1194-.1333-2.2387-.2132-3.3581-.2132h-9.621l.0266,8.7149h-.0533c-4.5573.08-9.9409.533-9.9409.533,1.8922,0,9.9409.533,9.9409.533h.0533v13.219h10.6605c1.146,0,2.292-.1066,3.438-.3198,1.146-.2132,2.1854-.5597,3.0915-1.0661.9062-.4797,1.6524-1.146,2.2387-1.9455.5597-.7995.8529-1.7856.8795-2.9583v-.1066c-.0266-.0266-.0266-.0799-.0266-.1332Zm-6.0765.5863l-.0267.0533c0,.0266-.0266.0533-.0266.0533-.2399.3465-.533.613-.8795.8262-.3465.2132-.7462.3731-1.1993.453-.4531.08-.9061.1333-1.3326.1333h-4.7439l-.2132-.0267v-.4797c0-1.5191.0267-4.9838.0533-5.7033,0-.2665-.0266-.4798-.0533-.7196l-.0266-.08-.0533-.1599c-.08-.2398-.1866-.3464-.2132-.3997q-.0267-.0267-.0533-.0534l-.3199-.3731,2.372.5597c3.8111,1.0128,5.5168,2.1854,6.2364,3.0116,1.1193,1.4125.6663,2.5585.4797,2.905Z"/></svg>