<?xml version="1.0" encoding="UTF-8"?><svg id="Layer_1" xmlns="http://www.w3.org/2000/svg" viewBox="0 0 47 47"><defs><style>.cls-1{opacity:.2;}.cls-1,.cls-2{isolation:isolate;}.cls-1,.cls-2,.cls-3,.cls-4{fill-rule:evenodd;}.cls-1,.cls-2,.cls-4{fill:#003b4d;}.cls-2{opacity:.1;}.cls-3{fill:#fff;}</style></defs><path class="cls-1" d="m23.6866,44.2138c11.3371,0,20.5276-9.1905,20.5276-20.5276S35.0237,3.1585,23.6866,3.1585,3.1589,12.3491,3.1589,23.6862s9.1906,20.5276,20.5277,20.5276Z"/><path class="cls-2" d="m23.5,47c12.9787,0,23.5-10.5213,23.5-23.5S36.4787,0,23.5,0,0,10.5213,0,23.5s10.5213,23.5,23.5,23.5Z"/><path class="cls-4" d="m23.5946,40.8696c9.5416,0,17.2767-7.7351,17.2767-17.2767S33.1362,6.3162,23.5946,6.3162,6.3179,14.0512,6.3179,23.5929s7.735,17.2767,17.2767,17.2767Z"/><path class="cls-3" d="m19.9684,32.3236l-5.7926-5.925c-.5528-.5053-.5746-1.3602-.044-1.9088.5092-.5486,1.3707-.5703,1.9235-.0433l4.2448,3.0057c.2432.2195.6197.1762.8179-.088l10.0608-12.3333c.4422-.5919,1.3049-.7247,1.9013-.2627.5964.4388.7303,1.2947.2647,1.8869l-11.3642,15.4923c-.2432.3075-.5967.5053-.9732.527-.0451.0216-.0669.0216-.1106.0216-.3535,0-.6851-.1313-.9284-.3724Z"/></svg>