<?xml version="1.0" encoding="UTF-8"?><svg id="Layer_1" xmlns="http://www.w3.org/2000/svg" viewBox="0 0 14.6666 14.6667"><defs><style>.cls-1,.cls-2{fill:#fff;}.cls-2{fill-rule:evenodd;}</style></defs><path class="cls-2" d="m5.5618,0C2.493,0,0,2.1771,0,4.8583c0,1.6729.9681,3.1472,2.4487,4.0257l-1.411,3.1855,2.9739-2.5514c.4935.1222,1.0124.1909,1.5502.1909,3.0751,0,5.5618-2.177,5.5618-4.8583S8.6369,0,5.5618,0Zm-2.5751,6.134c-.5062,0-.9238-.4965-.9238-1.1153,0-.6111.4113-1.1153.9238-1.1153s.9238.4965.9238,1.1153c-.0063.6188-.4176,1.1153-.9238,1.1153Zm1.607-1.1153c0,.6188.4176,1.1153.9238,1.1153s.9175-.4965.9238-1.1153c0-.6188-.4113-1.1153-.9238-1.1153s-.9238.5042-.9238,1.1153Zm3.4863,1.1153c-.5062,0-.9238-.4965-.9238-1.1153,0-.6111.4113-1.1153.9238-1.1153s.9238.4965.9238,1.1153c-.0063.6188-.4176,1.1153-.9238,1.1153Z"/><path class="cls-1" d="m5.4037,10.7709c7.7194-.573,6.4855-6.9132,6.4855-6.9132,3.2143,1.3521,3.9546,5.7597.5315,7.7763l1.2718,3.0327-2.7903-2.391c-3.3599.9549-5.4985-1.5048-5.4985-1.5048Z"/></svg>