<?xml version="1.0" encoding="UTF-8"?><svg id="Layer_1" xmlns="http://www.w3.org/2000/svg" viewBox="0 0 29.3333 29.3333"><defs><style>.cls-1,.cls-2{fill:#90918d;}.cls-2{fill-rule:evenodd;}</style></defs><path class="cls-1" d="m14.3927,2.1835c-3.3105.0399-6.4099,1.4034-8.7294,3.8408-3.348,3.5313-4.4198,8.6083-2.7987,13.2492.0962.2738.0822.5723-.0414.8393-.123.2641-.3361.463-.6014.562-.1383.044-.2519.0633-.3629.0633-.4364,0-.8373-.2793-.9984-.6948C-.0517,17.4312-.2421,14.6175.3058,11.8953c.5647-2.7924,1.8912-5.3488,3.8338-7.392C6.8527,1.6421,10.4834.0427,14.3626,0h.1711c3.4181,0,6.6879,1.2225,9.2901,3.4569l-.0033-.3275c0-.6013.4704-1.0973,1.0485-1.1097h.0207c.586,0,1.0511.4706,1.0632,1.0808l.0347,2.9073c0,.2999-.1096.5751-.3087.7801-.1992.2064-.4731.324-.7525.324l-2.8127.0358c-.5947,0-1.0665-.4754-1.0785-1.0808,0-.6061.4711-1.1035,1.0498-1.1152l.159-.0014c-2.1858-1.7935-4.8789-2.7676-7.6869-2.7676-.0555,0-.1096,0-.1644.0007Z"/><path class="cls-1" d="m28.4751,9.3251l.0007.0014c.9081,2.6032,1.0999,5.41.5519,8.1184-.5653,2.7931-1.8905,5.3488-3.8324,7.3913-2.7539,2.8997-6.446,4.4971-10.3947,4.4971-3.4202,0-6.6926-1.2204-9.2955-3.4528l.0033.3295c0,.602-.4711,1.098-1.0498,1.1097-.5988,0-1.0712-.4747-1.0832-1.0808l-.0341-2.9072c0-.602.4711-1.098,1.0498-1.1104l2.8241-.0357c.5947,0,1.0665.4746,1.0786,1.0807,0,.6061-.4705,1.1028-1.0492,1.1152l-.157.0014c2.1852,1.7859,4.8897,2.7607,7.7071,2.7607,3.3706,0,6.5208-1.3621,8.871-3.8353,3.3473-3.5244,4.4212-8.5986,2.8047-13.2437-.0962-.2703-.0828-.5668.0374-.8317.1217-.2669.3368-.4685.6055-.5689.5493-.2043,1.1614.0915,1.3619.6611Z"/><path class="cls-2" d="m5.8472,14.4468c0-5.1176,4.0503-9.2872,9.0214-9.2872s9.0215,4.1696,9.0215,9.2872-4.0503,9.2873-9.0215,9.2873-9.0214-4.1696-9.0214-9.2873Zm9.1049-5.9715c-.4945.0585-.8647.4939-.856,1.0058v4.9752c-.0013.3612.1878.6941.4932.8709l2.9002,1.658c.2239.13.4892.1623.7358.0894.2479-.0708.4571-.2421.5827-.4726.1263-.2305.1577-.5043.0869-.7581-.0689-.2552-.2353-.4706-.4591-.5999l-2.4064-1.3787v-4.3842c.0046-.2697-.0956-.5298-.28-.7203-.1831-.1919-.4351-.2979-.697-.2958-.0334.0014-.0662.0055-.1003.0103Z"/></svg>