<?xml version="1.0" encoding="UTF-8"?><svg id="Layer_1" xmlns="http://www.w3.org/2000/svg" viewBox="0 0 29.3334 29.3333"><defs><style>.cls-1,.cls-2{fill:#90918d;}.cls-2{fill-rule:evenodd;}</style></defs><path class="cls-1" d="m5.8292,6.0243c2.3875-2.4374,5.5777-3.8009,8.9853-3.8408.0564-.0007.1121-.0007.1692-.0007,2.8903,0,5.6624.9741,7.9123,2.7676l-.1637.0014c-.5957.0117-1.0806.5091-1.0806,1.1152.0124.6054.498,1.0808,1.1102,1.0808l2.8951-.0358c.2875,0,.5695-.1176.7745-.324.205-.205.3178-.4802.3178-.7801l-.0358-2.9073c-.0124-.6102-.4911-1.0808-1.0943-1.0808h-.0214c-.5949.0124-1.0792.5084-1.0792,1.1097l.0035.3275c-2.6785-2.2344-6.0441-3.4569-9.5624-3.4569h-.1761c-3.993.0427-7.73,1.6421-10.5227,4.5033C2.2614,6.5465.896,9.1029.3148,11.8953c-.564,2.7222-.368,5.5359.5709,8.148.1658.4155.5785.6948,1.0276.6948.1142,0,.2311-.0192.3735-.0633.2731-.099.4925-.2979.6191-.562.1272-.267.1417-.5655.0426-.8393-1.6687-4.6409-.5654-9.7179,2.8807-13.2492Z"/><path class="cls-2" d="m8.9702,9.5074c0-2.8715,2.3359-5.2077,5.2077-5.2077s5.2069,2.3363,5.2076,5.2077v2.9747c0,.0337.0413.0908.0736.1018.282.0935.5104.1747.7195.2559.2504.0963.4388.3729.4388.6432v6.8348c0,.269-.1871.5455-.4354.6439-1.9197.7609-3.9392,1.1468-6.0041,1.1468s-4.0851-.3859-6.0042-1.1468c-.2483-.0984-.4354-.3749-.4354-.6439v-6.8348c0-.2703.1885-.5469.4381-.6432.2091-.0805.4382-.1624.7195-.2559.033-.011.0743-.0681.0743-.1018v-2.9747Zm8.6242,0v2.566c-1.1205-.2407-2.2699-.3625-3.4159-.3625s-2.2953.1218-3.4179.3625v-2.566c0-1.8843,1.5326-3.417,3.4173-3.417,1.8833,0,3.4165,1.5327,3.4165,3.417Zm-4.8349,6.0574c0-.7836.6349-1.4186,1.4184-1.4186.7827,0,1.4183.635,1.4183,1.4186,0,.52-.2937.9541-.7099,1.2011v2.3452c0,.3921-.3164.7093-.7084.7093s-.7092-.3172-.7092-.7093v-2.3452c-.4168-.247-.7092-.6811-.7092-1.2011Z"/><path class="cls-1" d="m28.4499,9.3251l.0007.0014c.9348,2.6032,1.1322,5.41.5681,8.1184-.5819,2.7931-1.9459,5.3488-3.9448,7.3913-2.8346,2.8997-6.6349,4.4971-10.6994,4.4971-3.5203,0-6.8887-1.2204-9.5679-3.4528l.0034.3295c0,.602-.4849,1.098-1.0806,1.1097-.6163,0-1.1026-.4747-1.115-1.0808l-.0351-2.9072c0-.602.4849-1.098,1.0806-1.1104l2.9068-.0357c.6122,0,1.0978.4746,1.1102,1.0807,0,.6061-.4842,1.1028-1.0799,1.1152l-.1616.0014c2.2492,1.7859,5.0329,2.7607,7.9329,2.7607,3.4694,0,6.7119-1.3621,9.1311-3.8353,3.4454-3.5244,4.5507-8.5986,2.8869-13.2437-.0991-.2703-.0853-.5668.0385-.8317.1252-.2669.3466-.4685.6232-.5689.5654-.2043,1.1954.0915,1.4018.6611Z"/></svg>