<?xml version="1.0" encoding="UTF-8"?><svg id="Layer_1" xmlns="http://www.w3.org/2000/svg" viewBox="0 0 72 32.0608"><defs><style>.cls-1{fill:#003b4d;}.cls-2{fill:none;stroke:#fff;stroke-width:3px;}</style></defs><path class="cls-1" d="m72,14.6433v2.0383c-.0274.1185-.0668.2354-.0805.3555-.5625,4.9262-3.9678,8.9352-8.6247,10.1337-.5742.1478-1.1626.2355-1.7445.351h-1.9649c-.0993-.0272-.1972-.0677-.2983-.0797-6.618-.7882-11.1942-7.2235-9.9548-14.0018.9851-5.3871,5.563-9.4777,10.7785-9.6311,5.4846-.1613,10.2382,3.5328,11.5406,8.9802.1459.6104.2338,1.2356.3486,1.8539Zm-11.1243-7.3234c-.033.015-.0661.03-.0992.045,0,1.8651-.006,3.7304.0127,5.5953.0014.1316.1582.3202.2875.3828,1.3992.6766,2.8071,1.3339,4.2141,1.9934.0664.0311.1453.0336.2765.0621-1.5872-2.7331-3.1394-5.4059-4.6916-8.0786Zm-5.247,8.0069c.0293.0265.0587.0529.0881.0794,1.4724-.6943,2.9481-1.381,4.4108-2.0964.1221-.0597.2203-.3107.2223-.4741.0171-1.4506.0099-2.9015.0099-4.3523v-1.1356c-.0332-.0094-.0663-.0188-.0995-.0282-1.5439,2.6691-3.0878,5.3381-4.6316,8.0072Zm-.0782.6332c1.6253.983,3.1786,1.9225,4.7811,2.8917v-5.16c-1.6035.7608-3.1588,1.4986-4.7811,2.2683Zm5.2597-2.2667v5.158c1.6049-.9721,3.1549-1.9111,4.7759-2.8929-1.6328-.7744-3.179-1.5078-4.7759-2.2651Zm-.5625,10.3199c.0374-.0074.0747-.0147.1121-.022,0-1.197-.0103-2.3942.0069-3.591.0046-.3164-.0899-.4993-.3561-.661-1.3977-.8491-2.7833-1.7196-4.1744-2.5805-.1036-.0641-.2169-.1114-.4443-.2266,1.6722,2.4385,3.264,4.7598,4.8558,7.0811Zm5.4794-7.0557c-.1508.0541-.1919.0613-.2253.082-1.4929.924-2.9893,1.842-4.4703,2.7861-.136.0867-.2408.3396-.2444.5178-.022,1.1104-.0121,2.2216-.0096,3.3325.0003.1098.0217.2197.0443.4339,1.6526-2.4096,3.2441-4.7301,4.9053-7.1523Z"/><path class="cls-1" d="m12.2823,3.8042c6.7834,0,12.2824,5.3094,12.2824,11.8589s-5.499,11.8588-12.2823,11.8588S0,22.2124,0,15.663C0,9.1135,5.499,3.8042,12.2823,3.8042Zm-7.3899,17.1033c-.0457.044-.0714.1039-.0714.1662,0,.1299.109.2351.2435.2351h11.9101c.1291,0,.2529-.0494.3442-.1376l2.3534-2.2704c.0457-.0441.0714-.1039.0714-.1663,0-.1299-.109-.2351-.2434-.2351H7.59c-.1291,0-.2529.0495-.3442.1376l-2.3534,2.2705Zm0-8.4824c-.0457.0441-.0714.104-.0714.1663,0,.1299.109.2351.2435.2351h11.9101c.1291,0,.2529-.0495.3442-.1375l2.3534-2.2705c.0457-.0441.0714-.1039.0714-.1663,0-.1298-.109-.2351-.2434-.2351H7.59c-.1291,0-.2529.0495-.3442.1376l-2.3534,2.2704Zm12.4265,1.9437c-.0914-.0881-.2152-.1376-.3442-.1376H5.0645c-.1345,0-.2435.1053-.2435.2351,0,.0624.0257.1222.0714.1663l2.3534,2.2705c.0913.0881.2151.1375.3442.1375h11.9102c.1345,0,.2435-.1052.2435-.2351,0-.0624-.0257-.1222-.0714-.1663l-2.3534-2.2704Z"/><g><g><path class="cls-2" d="m20.2667,16.8514c0-.5481,0-1.0962,0-1.6443.1156-.8096.1885-1.628.3533-2.4274C22.4439,3.9284,31.3067-1.6766,40.0933.4518c8.5283,2.0658,13.8828,10.5949,11.8303,19.1364-1.5457,6.4321-5.7009,10.4398-12.12,12.0678-.8172.2073-1.6702.2733-2.5066.4048h-1.9745c-.0912-.023-.1814-.0602-.2739-.0668-1.9035-.1369-3.7306-.5936-5.4441-1.4244-4.872-2.3621-7.9005-6.1892-9.0149-11.4973-.1534-.7307-.2174-1.4801-.3228-2.2209Zm10.8201-5.8366v10.0513h-1.9937v1.8145h3.3615v2.6506h1.8183v-2.619h1.3216v2.6253h1.8434v-2.6682c.8209,0,1.5866.0263,2.3499-.0051,1.9465-.0802,3.5812-1.6104,3.7607-3.4903.1964-2.0572-1.0249-3.8427-2.9717-4.3441-.157-.0404-.3141-.0801-.565-.144.2179-.0679.3345-.1014.4492-.1404,1.4444-.4908,2.2394-1.9648,1.8572-3.4421-.3081-1.1909-1.3495-2.0594-2.5832-2.1097-.7491-.0306-1.5006-.0056-2.3056-.0056v-2.6625h-1.8589v2.6229h-1.3222v-2.6294h-1.8152v2.6593h-3.3338v1.8366h1.9876Z"/><path class="cls-2" d="m34.342,20.8519c0-1.3614-.0003-2.6756.0007-3.9898,0-.0814.0095-.1628.0177-.294.1751-.0083.3477-.0253.5201-.0233.9856.0114,1.9753-.0232,2.9557.0553,1.095.0877,1.8879.9961,1.9128,2.0581.0252,1.0721-.7565,2.0876-1.8419,2.173-1.1669.0919-2.3466.0207-3.5652.0207Z"/><path class="cls-2" d="m34.355,14.7704v-3.5769c1.0754,0,2.1451-.0771,3.1974.0249.8147.079,1.4024.9911,1.3545,1.8138-.0528.9053-.6749,1.6573-1.5734,1.7223-.9768.0706-1.9627.016-2.9785.016Z"/></g><g><path class="cls-1" d="m20.2667,16.8514c0-.5481,0-1.0962,0-1.6443.1156-.8096.1885-1.628.3533-2.4274C22.4439,3.9284,31.3067-1.6766,40.0933.4518c8.5283,2.0658,13.8828,10.5949,11.8303,19.1364-1.5457,6.4321-5.7009,10.4398-12.12,12.0678-.8172.2073-1.6702.2733-2.5066.4048h-1.9745c-.0912-.023-.1814-.0602-.2739-.0668-1.9035-.1369-3.7306-.5936-5.4441-1.4244-4.872-2.3621-7.9005-6.1892-9.0149-11.4973-.1534-.7307-.2174-1.4801-.3228-2.2209Zm10.8201-5.8366v10.0513h-1.9937v1.8145h3.3615v2.6506h1.8183v-2.619h1.3216v2.6253h1.8434v-2.6682c.8209,0,1.5866.0263,2.3499-.0051,1.9465-.0802,3.5812-1.6104,3.7607-3.4903.1964-2.0572-1.0249-3.8427-2.9717-4.3441-.157-.0404-.3141-.0801-.565-.144.2179-.0679.3345-.1014.4492-.1404,1.4444-.4908,2.2394-1.9648,1.8572-3.4421-.3081-1.1909-1.3495-2.0594-2.5832-2.1097-.7491-.0306-1.5006-.0056-2.3056-.0056v-2.6625h-1.8589v2.6229h-1.3222v-2.6294h-1.8152v2.6593h-3.3338v1.8366h1.9876Z"/><path class="cls-1" d="m34.342,20.8519c0-1.3614-.0003-2.6756.0007-3.9898,0-.0814.0095-.1628.0177-.294.1751-.0083.3477-.0253.5201-.0233.9856.0114,1.9753-.0232,2.9557.0553,1.095.0877,1.8879.9961,1.9128,2.0581.0252,1.0721-.7565,2.0876-1.8419,2.173-1.1669.0919-2.3466.0207-3.5652.0207Z"/><path class="cls-1" d="m34.355,14.7704v-3.5769c1.0754,0,2.1451-.0771,3.1974.0249.8147.079,1.4024.9911,1.3545,1.8138-.0528.9053-.6749,1.6573-1.5734,1.7223-.9768.0706-1.9627.016-2.9785.016Z"/></g></g></svg>