<?xml version="1.0" encoding="UTF-8"?><svg id="Layer_1" xmlns="http://www.w3.org/2000/svg" viewBox="0 0 26.1724 31.625"><defs><style>.cls-1{fill:#90918d;}</style></defs><path class="cls-1" d="m25.3254,13.1786l.12-.0274c1.0454-.2354.9317-1.7648-.1379-1.8418l-.1221-.0084c-.9169-.0655-1.1938-1.2824-.3958-1.7405l.1063-.0612c.9296-.5341.3706-1.961-.6727-1.7193l-.12.0274c-.8959.2079-1.5181-.8729-.8907-1.5462l.0843-.0897c.7316-.7853-.2222-1.9842-1.1486-1.4439l-.1063.0623c-.7949.4633-1.7066-.3852-1.3055-1.2148l.0537-.1108c.4685-.9668-.7959-1.8302-1.5223-1.0407l-.0831.0908c-.6233.6776-1.7445.1362-1.6044-.7747l.0189-.1214c.1632-1.0618-1.298-1.5135-1.7602-.5446l-.0526.1108c-.3959.8317-1.6266.6459-1.7613-.266l-.0179-.1214c-.1558-1.0628-1.6855-1.0628-1.8423,0l-.0179.1214c-.1337.9119-1.3644,1.0977-1.7613.266l-.0526-.1108c-.4622-.97-1.9234-.5172-1.7603.5446l.019.1214c.14.9109-.9812,1.4523-1.6044.7747l-.0832-.0908c-.7264-.7895-1.9897.0739-1.5223,1.0407l.0537.1108c.4011.8285-.5106,1.6782-1.3054,1.2148l-.1063-.0623c-.9264-.5404-1.8802.6586-1.1486,1.4439l.0842.0897c.6274.6734.0053,1.7541-.8906,1.5462l-.12-.0274c-1.0443-.2428-1.6023,1.1842-.6727,1.7193l.1063.0612c.798.4581.5201,1.675-.3958,1.7405l-.1221.0084c-1.0686.077-1.1833,1.6053-.1379,1.8418l.12.0274c.897.2026.9896,1.446.1326,1.7805l-.1147.0444c-.9991.3894-.659,1.8839.4095,1.8006l.1221-.0095c.9159-.0718,1.3707,1.0892.6506,1.6623l-.0958.076c-.8401.667-.0758,1.9948.9212,1.599l.1147-.0454c.8548-.3398,1.6307.6364,1.1107,1.3964l-.0695.1013c-.6064.8855.5148,1.9283,1.3496,1.256l.0958-.0771c.7169-.5773,1.7455.1256,1.4718,1.0059l-.0369.1171c-.319,1.0259,1.0591,1.6909,1.6592.8011l.0684-.1024c.5148-.7631,1.7044-.3947,1.7013.5267v.1235c-.0032,1.0744,1.5086,1.3024,1.8212.2755l.0358-.1182c.2685-.8813,1.5129-.8813,1.7813,0l.0358.1182c.3127,1.028,1.8244.7989,1.8213-.2755v-.1235c-.0032-.9214,1.1864-1.2898,1.7012-.5267l.0685.1024c.6011.8898,1.9781.2248,1.6591-.8011l-.0368-.1171c-.2737-.8792.7548-1.5821,1.4717-1.0059l.0958.0771c.8359.6723,1.9571-.3705,1.3497-1.256l-.0695-.1013c-.5201-.76.2558-1.7352,1.1107-1.3964l.1147.0454c.9959.3958,1.7613-.932.9212-1.599l-.0958-.076c-.7201-.5721-.2653-1.7341.6506-1.6623l.1221.0095c1.0686.0833,1.4086-1.4112.4095-1.8006l-.1147-.0444c-.8549-.3345-.7622-1.5789.1347-1.7805Zm-12.2383,10.5197c-5.846,0-10.5845-4.7506-10.5845-10.6115S7.2411,2.4742,13.0871,2.4742s10.5844,4.7506,10.5844,10.6115-4.7384,10.6126-10.5844,10.6126Z"/><path class="cls-1" d="m18.5388,31.625l-5.4521-1.4585-5.4531,1.4585v-8.5349l5.4531,1.4861,5.4521-1.6754v8.7242Z"/><path class="cls-1" d="m19.3153,15.9495c0-.0921,0-.1843-.0183-.2813v-.0679c0-.0388-.0116-.084-.0199-.1261v-.0404l-.0233-.105c-.1256-.6045-.4529-1.1517-.9311-1.5568-1.1505-.9941-3.4366-1.5971-6.7967-1.7894h-.103v-2.3214h2.0499c.244.0009.4875.0203.7283.0582.2295.0349.4532.0996.665.1924.1817.0807.3396.2047.4589.3605.1209.169.1827.3713.1762.5771.0034.2085-.0543.4137-.1663.5916-.0241.0364-.0502.0714-.0781.1051-.1984.1958-.4384.3469-.7033.4429.9253.1464,1.8302.3959,2.6968.7436l.0681-.0355h.0083c.1454-.0759.281-.1681.404-.2748.0522-.0429.1016-.0888.148-.1374l.1131-.1132c.224-.2285.3984-.4986.5127-.7941.1142-.2956.166-.6104.1523-.9259,0-.6708-.1662-1.2172-.4755-1.6278-.3177-.4117-.7368-.7391-1.2187-.9522-.5266-.2322-1.0868-.3843-1.6609-.451-.6067-.074-1.2174-.1112-1.8289-.1115h-5.2288l.0133,4.6136h-.0233c-2.4939.042-5.4117.278-5.4117.278,1.0308,0,5.4134.278,5.4134.278h.0233v6.9882h5.8091c.6278.002,1.2544-.0521,1.872-.1616.5902-.1029,1.1601-.2948,1.6892-.569.4828-.249.8999-.603,1.2187-1.0346.3185-.4624.4838-1.0084.4738-1.5648v-.1148l-.0066-.0727Zm-3.2936.3621l-.0133.0259c0,.0097-.0116.021-.02.0323-.1241.1771-.2856.3264-.4738.4381-.205.1177-.4304.1982-.665.2376-.2401.0443-.4839.0671-.7282.0679h-2.5737l-.1098-.0146v-.2473c0-.7985.02-2.6398.025-3.0213.0043-.1254-.0074-.2508-.0349-.3734v-.0388l-.0266-.0856c-.0242-.0762-.0644-.1467-.1181-.207-.0068-.0103-.0146-.0201-.0233-.0291l-.1662-.2004,1.2951.2894c2.0816.5383,2.9927,1.1622,3.4017,1.5987.5786.742.3242,1.366.2311,1.5276Z"/></svg>