<?xml version="1.0" encoding="UTF-8"?><svg id="Layer_1" xmlns="http://www.w3.org/2000/svg" viewBox="0 0 150 20.2631"><defs><style>.cls-1{fill:#ee3536;}.cls-2{fill:#ed3536;}.cls-3{fill:#fff;}</style></defs><path class="cls-2" d="m28.2874,20.1926V.0241h13.4768v4.0945h-8.8207v3.8138h8.3528v3.9073h-8.3294v4.1881h9.3121v4.1648h-13.9916Z"/><path class="cls-2" d="m60.412,2.0129c.8189-.7955,1.7548-1.4506,2.8077-1.9888h-19.6771v4.1647h5.6621v16.0038h4.8432V4.1888h4.6327c.4913-.7955,1.0763-1.5208,1.7314-2.1759Z"/><path class="cls-3" d="m76.8133,2.9492c-.9125-.9125-2.0121-1.6144-3.2756-2.1292-1.2634-.5147-2.6673-.7721-4.1881-.7721-1.4974,0-2.9013.2574-4.1881.7721-1.2635.5147-2.3631,1.2401-3.2756,2.1292-.9125.9125-1.6144,1.9888-2.1292,3.2054-.5147,1.2167-.7721,2.5737-.7721,4.0009s.2574,2.7609.7721,4.0009c.5148,1.2167,1.2401,2.3164,2.1292,3.2055.9125.9125,2.0121,1.6144,3.2756,2.1291,1.2635.5148,2.6673.7721,4.1881.7721,1.4974,0,2.9013-.2573,4.1881-.7721,1.2635-.5147,2.3631-1.24,3.2756-2.1291.9125-.9125,1.6144-1.9888,2.1292-3.2055.5147-1.2166.7721-2.5737.7721-4.0009s-.2574-2.7609-.7721-4.0009c-.5148-1.2167-1.2167-2.2929-2.1292-3.2054Zm-.2105,7.2064c0,1.0061-.1638,1.9888-.5148,2.8779-.3509.8891-.8423,1.6846-1.4506,2.3397-.6317.6551-1.4038,1.1933-2.2695,1.591-.8891.3978-1.8718.5849-2.9715.5849s-2.1058-.1871-2.9715-.5849c-.889-.3977-1.6378-.9359-2.2695-1.591-.6317-.6551-1.1231-1.4506-1.4506-2.3397-.351-.8891-.5148-1.8718-.5148-2.8779s.1638-1.9888.5148-2.8779c.3509-.8891.8423-1.6846,1.4506-2.3397.6317-.6551,1.4038-1.1933,2.2695-1.591.8891-.3977,1.8718-.5849,2.9715-.5849s2.1058.1872,2.9715.5849c.8891.3977,1.6378.9359,2.2695,1.591.6317.6551,1.1231,1.4506,1.4506,2.3397.3276.8891.5148,1.8718.5148,2.8779Z"/><path class="cls-3" d="m102.621.0241h-2.9953v20.1451h12.0963v-2.6907h-9.101V.0241Z"/><path class="cls-3" d="m116.495.0241h-2.995v20.1685h2.995V.0241Z"/><path class="cls-3" d="m139.401,17.4785v-6.1067h9.406v-2.7141h-9.406V2.7382h10.084V.0241h-13.079v20.1451h13.594v-2.6907h-10.599Z"/><path class="cls-3" d="m95.0164,13.4073L81.5162.0241v20.1451h2.8077V6.9497l13.5236,13.2195V.0241h-2.8311v13.3832Z"/><path class="cls-3" d="m131.797,13.5009L118.273.0241v20.1451h2.831V7.0433l13.501,13.0323V.0241h-2.808v13.4768Z"/><path class="cls-1" d="m26.5793,14.4595v-.117c0-.1638-.0234-.3041-.0234-.4679v-.0936c0-.0702-.0234-.1404-.0234-.2106v-.0702l-.0468-.1638c-.3276-1.591-1.3102-2.4333-1.4974-2.5737-1.8484-1.6612-5.5452-2.6439-10.9733-2.9714h-.1638l-.0234-3.8605h3.3458c.3744,0,.7721.0234,1.1699.0936.3977.0702.7487.1638,1.0762.3276.3042.1404.5382.3276.7487.5849.1872.2574.2808.5615.2808.9593,0,.3744-.0936.7019-.2574.9827-.0467.0702-.0701.117-.1169.1638-.0936.117-.3978.4211-1.1231.7253,1.2166.2106,2.8779.5849,4.3519,1.2401.0468-.0234.0702-.0468.117-.0702.2807-.1638.4679-.3042.6551-.4446.1638-.1404.234-.234.234-.234.0468-.0468.1169-.117.1871-.1872.7254-.7487,1.0763-1.708,1.0763-2.8545,0-1.1231-.2574-2.0122-.7721-2.6907-.4913-.6785-1.1699-1.2167-1.9654-1.591-.7955-.3744-1.708-.6083-2.6906-.7487-.9827-.117-1.9654-.1872-2.9481-.1872h-8.4464l.0234,7.6509h-.0468c-4.0009.0702-8.7272.4679-8.7272.4679,1.6612,0,8.7272.4679,8.7272.4679h.0468v11.605h9.3589c1.0061,0,2.0121-.0935,3.0182-.2807s1.9186-.4914,2.7141-.9359c.7955-.4212,1.4506-1.0061,1.9654-1.708.4913-.7019.7487-1.5676.7721-2.5971v-.0936c-.0234-.0234-.0234-.0702-.0234-.117Zm-5.3346.5148l-.0234.0467c0,.0234-.0234.0468-.0234.0468-.2105.3042-.4679.5382-.7721.7254-.3041.1871-.6551.3275-1.0529.3977-.3977.0702-.7955.117-1.1698.117h-4.1647l-.1872-.0234v-.4212c0-1.3336.0234-4.3752.0468-5.007,0-.2339-.0234-.4211-.0468-.6317l-.0234-.0702-.0468-.1404c-.0702-.2105-.1638-.3041-.1872-.3509q-.0234-.0234-.0468-.0468l-.2807-.3276,2.0823.4913c3.3458.8891,4.8432,1.9185,5.475,2.6438.9827,1.2401.5849,2.2462.4211,2.5504Z"/></svg>